<svg width="15" height="15" viewBox="0 0 15 15" fill="none" xmlns="http://www.w3.org/2000/svg">
<path d="M0.0861486 12.7587C0.0786486 12.7442 0.0816174 12.7503 0.0858361 12.7589L0.0861486 12.7587Z" fill="#314D63"/>
<path d="M0.49833 12.5424C0.498955 12.5427 0.499423 12.5433 0.499892 12.5441C0.491923 12.529 0.478017 12.5027 0.49833 12.5424Z" fill="#314D63"/>
<mask id="mask0_862_835" style="mask-type:luminance" maskUnits="userSpaceOnUse" x="0" y="10" width="5" height="4">
<path d="M0.0185547 10.6406H4.9198V13.9938H0.0185547V10.6406Z" fill="white"/>
</mask>
<g mask="url(#mask0_862_835)">
<path d="M1.89778 13.9588C1.13606 13.8421 0.437932 13.4474 0.103401 12.7939L0.0859011 12.7599L0.0855885 12.76C0.0921511 12.7728 0.101526 12.7921 0.0849635 12.7603C0.0194948 12.6344 -0.0123802 12.5736 0.0594948 12.4514C0.139495 12.3144 0.21137 12.321 0.349964 12.3333C0.351057 12.3335 0.351995 12.3335 0.395901 12.3364C1.25231 12.395 1.3509 12.2596 1.70543 11.7722C1.78012 11.6697 1.86449 11.5536 1.97824 11.4071C2.00012 11.3791 2.01621 11.3588 2.02668 11.3461C2.41184 10.8802 2.87809 10.6619 3.3595 10.6438C3.83153 10.6261 4.31012 10.8044 4.73262 11.1321C4.80731 11.19 4.87043 11.2339 4.88371 11.3374C4.9909 12.1827 4.74012 12.8224 4.3009 13.2652C3.99856 13.57 3.60871 13.7772 3.18668 13.8907C2.77121 14.0024 2.3234 14.0239 1.89778 13.9588Z" fill="#314D63"/>
</g>
<mask id="mask1_862_835" style="mask-type:luminance" maskUnits="userSpaceOnUse" x="4" y="1" width="11" height="11">
<path d="M4.3623 1.00391H14.9831V11.7578H4.3623V1.00391Z" fill="white"/>
</mask>
<g mask="url(#mask1_862_835)">
<path d="M4.36279 10.63C5.34779 8.98419 6.7292 7.42387 8.17326 6.05028C10.7739 3.57669 13.5829 1.70387 14.6251 1.04028C14.7334 0.971374 14.8775 1.00325 14.9465 1.11153C14.9976 1.19169 14.9936 1.29106 14.944 1.36544C14.2701 2.42309 12.3606 5.28372 9.84357 7.90747C8.43311 9.37762 6.83014 10.7753 5.14186 11.7454C5.14342 11.6011 5.13451 11.4548 5.11576 11.3076C5.09373 11.1337 5.00545 11.0473 4.87623 10.947C4.71732 10.8239 4.54498 10.7161 4.36279 10.63Z" fill="#314D63"/>
</g>
</svg>
